ModelForces
version=1
nRows=6
nColumns=103
inDegrees=no

This file contains the forces exerted on a model during a simulation.

A force is a generalized force, meaning that it can be either a force (N) or a torque (Nm).

Units are S.I. units (second, meters, Newtons, ...)
Angles are in degrees.

endheader
time	glut_med1_r	glut_med2_r	glut_med3_r	glut_min1_r	glut_min2_r	glut_min3_r	semimem_r	semiten_r	bifemlh_r	bifemsh_r	sar_r	add_long_r	add_brev_r	add_mag1_r	add_mag2_r	add_mag3_r	tfl_r	pect_r	grac_r	glut_max1_r	glut_max2_r	glut_max3_r	iliacus_r	psoas_r	quad_fem_r	gem_r	peri_r	rect_fem_r	vas_med_r	vas_int_r	vas_lat_r	med_gas_r	lat_gas_r	soleus_r	tib_post_r	flex_dig_r	flex_hal_r	tib_ant_r	per_brev_r	per_long_r	per_tert_r	ext_dig_r	ext_hal_r	glut_med1_l	glut_med2_l	glut_med3_l	glut_min1_l	glut_min2_l	glut_min3_l	semimem_l	semiten_l	bifemlh_l	bifemsh_l	sar_l	add_long_l	add_brev_l	add_mag1_l	add_mag2_l	add_mag3_l	tfl_l	pect_l	grac_l	glut_max1_l	glut_max2_l	glut_max3_l	iliacus_l	psoas_l	quad_fem_l	gem_l	peri_l	rect_fem_l	vas_med_l	vas_int_l	vas_lat_l	med_gas_l	lat_gas_l	soleus_l	tib_post_l	flex_dig_l	flex_hal_l	tib_ant_l	per_brev_l	per_long_l	per_tert_l	ext_dig_l	ext_hal_l	ercspn_r	ercspn_l	intobl_r	intobl_l	extobl_r	extobl_l	aACL_R	pACL_R	aPCL_R	pPCL_R	aMCL_R	aLCL_R	aPCL_L	pPCL_L	aMCL_L	aLCL_L
      0.06500000	      0.00000000	     23.99366457	     26.02232012	      0.00000000	     13.44123144	     14.08033772	      0.00000000	    267.33229897	    139.60574929	    357.91294544	    140.06999817	      5.89954692	      4.93268413	      0.00000000	      0.00000000	     14.03009741	      0.00000000	      0.00000000	    115.27355956	     15.08171887	     22.46292073	     14.26799696	     24.75812486	     16.72232275	      0.00000000	      5.25294698	      0.00000000	      0.00000000	      0.00000000	      0.00000000	      0.00000000	      0.00000000	      0.00000000	      0.00000000	     20.77244979	      8.82777686	     12.49466792	      2.19623412	      9.94647807	     29.32199032	      3.50432901	      0.00000000	      0.00000000	      0.00000000	     20.44861798	     23.64756162	      9.12004128	     10.54637980	      5.58375357	      0.00000000	      7.81462684	     11.13195430	      9.63205376	      3.33792391	     10.45539265	      8.29346433	      0.00000000	      0.00000000	     11.87440232	      5.03384175	      0.00000000	      2.67578673	     10.60494082	     20.08066300	     14.00004043	     33.45908312	     25.76354482	      0.00000000	      8.76058005	      0.00000000	     13.56559662	      0.00000000	      0.00000000	      0.00000000	      0.00000000	      0.00000000	      0.00000000	     29.75697319	     11.33695261	      9.61304338	     36.39861438	      6.09293000	     12.25653243	      9.42242523	      6.91313214	      1.64849800	     67.39955221	     67.39955221	     26.05387861	     26.05387861	     42.51182079	     42.51182079	      0.00000000	    483.70963885	    273.20234863	    506.85286421	      0.00000000	      0.00000000	      0.00000000	      0.00000000	      5.17204933	      0.00000000
      0.06600000	      0.00000000	     23.70592581	     25.75139275	      5.88723988	      7.20297062	     13.96033792	      0.00000000	    278.49667844	    176.83744110	    380.55212532	    150.79786947	      5.81673295	      5.14778943	      0.00000000	      0.00000000	     13.82806919	      0.00000000	      0.00000000	    120.13806687	     15.01318345	     22.38941458	     14.18935758	     24.60770743	     16.83069784	      0.00000000	      4.95482993	      0.00000000	      0.00000000	      0.00000000	      0.00000000	      0.00000000	      0.00000000	      0.00000000	      0.00000000	     25.92717517	      9.78450801	     14.26377219	      1.19879728	      9.24010545	     28.99247679	      3.37026689	      0.00000000	      0.00000000	      0.00000000	     20.58431168	     23.35396942	      9.15051179	     10.49674198	      6.41541590	      0.00000000	      7.76515135	     10.92617561	      9.48476649	      3.32957830	     10.41134503	      8.23522800	      0.00000000	      0.00000000	     11.80495136	      4.96853977	      0.00000000	      2.65782555	     11.06014836	     19.81138675	     13.76893127	     33.34335495	     25.60616730	      0.00000000	      8.56030341	      0.00000000	     13.32255301	      0.00000000	      0.00000000	      0.00000000	      0.00000000	      0.00000000	      0.00000000	     27.90008895	     11.18013157	      9.67863565	     36.93361432	      6.87396524	     13.00598364	      9.48927815	      7.14231945	      1.63346858	     66.82658887	     66.82658887	     25.82559571	     25.82559571	     42.29210950	     42.29210950	      0.00000000	    500.89699354	    268.78831127	    551.42791041	      0.00000000	      0.00000000	      0.00000000	      0.00000000	      6.60755022	      0.00000000
      0.06666667	      0.00000000	     23.49355249	     25.56136825	      8.55256733	      9.33698262	     13.81600234	      0.00000000	    286.87081807	    202.21976864	    396.87593575	    158.26495558	      5.82075157	      5.37408394	      0.00000000	      0.00000000	     13.78242735	      0.00000000	      0.00000000	    123.66537538	     14.97141300	     22.40226520	     14.34344126	     24.34432400	     16.79727977	      0.00000000	      4.80149538	      0.00000000	      0.00000000	      0.00000000	      0.00000000	      0.00000000	      0.00000000	      0.00000000	      0.00000000	     29.26044711	     10.34372839	     14.79251326	      0.64188228	      9.04047601	     29.07601210	      3.31921273	      0.00000000	      0.00000000	      0.00000000	     20.58904983	     23.14320642	      9.17105965	     10.46860137	      6.92399333	      0.00000000	      7.73213092	     10.78490021	      9.38648208	      3.32282337	     10.37642425	      8.19195532	      0.00000000	      0.00000000	     11.75944309	      4.92571965	      0.00000000	      2.64536301	     11.30939152	     19.63681877	     13.61667602	     33.25789670	     25.49826332	      0.00000000	      8.41555395	      0.00000000	     13.16753544	      0.00000000	      0.00000000	      0.00000000	      0.00000000	      0.00000000	      0.00000000	     26.64414476	     11.04811676	      9.69615535	     36.86126366	      7.45091510	     13.55328883	      7.18740907	      7.30102201	      1.62309257	     66.44911601	     66.44911601	     25.67493188	     25.67493188	     42.14745058	     42.14745058	      0.00000000	    509.04254414	    266.01156558	    563.20185258	      0.00000000	      0.00000000	      0.00000000	      0.00000000	      7.41750920	      0.00000000
      0.06700000	      0.00000000	     23.38209724	     25.46502306	      9.48753632	     10.25976263	     13.74429899	      0.00000000	    291.18152779	    214.66912300	    404.84882145	    161.64413993	      5.83781620	      5.51111711	      0.00000000	      0.00000000	     13.78916730	      0.00000000	      0.00000000	    125.41063554	     14.95372364	     22.42567721	     14.48738176	     24.16082616	     16.74530409	      0.00000000	      4.73849118	      0.00000000	      0.00000000	      0.00000000	      0.00000000	      0.00000000	      0.00000000	      0.00000000	      0.00000000	     30.85815594	     10.59037937	     14.89431532	      0.39998708	      9.02432781	     29.21673647	      3.30541251	      0.00000000	      0.00000000	      0.00000000	     20.57415912	     23.03579057	      9.18108749	     10.45571144	      7.16584968	      0.00000000	      7.71546562	     10.71336716	      9.33754394	      3.31901443	     10.35720787	      8.16918600	      0.00000000	      0.00000000	     11.73700062	      4.90450298	      0.00000000	      2.63895615	     11.41781884	     19.55114352	     13.54123806	     33.21243030	     25.44315383	      0.00000000	      8.33967760	      0.00000000	     13.09198123	      0.00000000	      0.00000000	      0.00000000	      0.00000000	      0.00000000	      0.00000000	     26.01483905	     10.97496889	      9.69773277	     36.76369280	      7.75588339	     13.84009853	      6.91600427	      7.38177215	      1.61783900	     66.26171665	     66.26171665	     25.60005888	     25.60005888	     42.07565955	     42.07565955	      0.00000000	    511.88155537	    264.84620615	    563.29158847	      0.00000000	      0.00000000	      0.00000000	      0.00000000	      7.76735143	      0.00000000
      0.06800000	      0.00000000	     23.03306805	     25.17348595	     10.36588235	     12.02170328	     13.51134874	      0.00000000	    303.84637377	    248.91860558	    425.58379022	    168.86868320	      5.93721942	      6.00923931	      0.00000000	      0.00000000	     13.93365275	      0.00000000	      0.00000000	    130.11480005	     14.91566952	     22.54834073	     15.17906559	     23.40560967	     16.44099762	      0.00000000	      4.60074728	      0.00000000	      0.00000000	      0.00000000	      0.00000000	      0.00000000	      0.00000000	      0.00000000	      0.00000000	     35.22127140	     11.16470340	     14.85486775	      0.00000000	      9.31617703	     30.05188360	      3.30939731	      0.00000000	      0.00000000	      0.00000000	     20.48521501	     22.71026088	      9.20885741	     10.42046804	      7.84621179	      0.00000000	      7.66437334	     10.49544740	      9.19126917	      3.30569223	     10.29270506	      8.09762359	      0.00000000	      0.00000000	     11.67115456	      4.84138971	      0.00000000	      2.61893228	     11.68037555	     19.30060089	     13.31807861	     33.06481493	     25.27254499	      0.00000000	      8.09764043	      0.00000000	     12.87112443	      0.00000000	      0.00000000	      0.00000000	      0.00000000	      0.00000000	      0.00000000	     24.13096839	     10.72983186	      9.67533293	     36.37446653	      8.73835281	     14.75122229	      8.89093536	      7.62970773	      1.60213353	     65.70481256	     65.70481256	     25.37727962	     25.37727962	     41.86241613	     41.86241613	      0.00000000	    515.38764254	    263.41262709	    541.35543250	      0.00000000	      0.00000000	      0.00000000	      0.00000000	      8.63205925	      0.00000000
      0.06900000	      0.00000000	     22.67531126	     24.88400139	      9.88781993	     12.12968601	     13.24998749	      0.00000000	    314.70152575	    274.48234398	    437.68879923	    170.50205188	      6.08516001	      6.61236920	      0.00000000	      0.00000000	     14.25869080	      0.00000000	      0.00000000	    133.26523462	     14.89675773	     22.70803417	     16.13608918	     22.37824890	     15.91820418	      0.00000000	      4.52754428	      0.00000000	      0.00000000	      0.00000000	      0.00000000	      0.00000000	      0.00000000	      0.00000000	      0.00000000	     38.70511926	     11.44939459	     14.55359555	      0.00000000	     10.12283292	     31.50427326	      3.37430013	      0.00000000	      0.00000000	      0.00000000	     20.35632541	     22.38229935	      9.23048118	     10.38767943	      8.46763657	      0.00000000	      7.61100178	     10.27521734	      9.04848416	      3.28953527	     10.21945309	      8.02450708	      0.00000000	      0.00000000	     11.60783988	      4.77920428	      0.00000000	      2.59784262	     11.85536572	     19.05894937	     13.10006430	     32.90143077	     25.09377688	      0.00000000	      7.83362839	      0.00000000	     12.65867255	      0.00000000	      0.00000000	      0.00000000	      0.00000000	      0.00000000	      0.00000000	     22.27834860	     10.45341714	      9.61755958	     35.93727823	      9.81737627	     15.72877672	      8.98947145	      7.88362613	      1.58681204	     65.15575575	     65.15575575	     25.15726363	     25.15726363	     41.65232576	     41.65232576	      0.00000000	    512.65253680	    267.32044994	    492.53308766	      0.00000000	      0.00000000	      0.00000000	      0.00000000	      9.26869623	      0.00000000
